HIERARCHY
ROOT Hips
{
	OFFSET -14.64140 90.27770 -84.91600
	CHANNELS 6 Xposition Yposition Zposition Zrotation Xrotation Yrotation
	JOINT Spine
	{
		OFFSET 0.00000 13.20850 -1.60436
		CHANNELS 3 Zrotation Xrotation Yrotation
		JOINT Spine1
		{
			OFFSET 0.00000 8.61716 0.00000
			CHANNELS 3 Zrotation Xrotation Yrotation
			JOINT Spine2
			{
				OFFSET 0.00000 8.61717 0.00000
				CHANNELS 3 Zrotation Xrotation Yrotation
				JOINT Spine3
				{
					OFFSET 0.00000 8.61717 0.00000
					CHANNELS 3 Zrotation Xrotation Yrotation
					JOINT Neck
					{
						OFFSET 0.00000 11.07920 1.10792
						CHANNELS 3 Zrotation Xrotation Yrotation
						JOINT Neck1
						{
							OFFSET 0.00000 7.08032 0.00000
							CHANNELS 3 Zrotation Xrotation Yrotation
							JOINT Head
							{
								OFFSET 0.00000 7.08031 0.00000
								CHANNELS 3 Zrotation Xrotation Yrotation
								End site
								{
									OFFSET 0.00000 0.00000 0.00000
								}
							}
						}
					}
					JOINT RightShoulder
					{
						OFFSET -0.01000 7.91373 5.19711
						CHANNELS 3 Zrotation Xrotation Yrotation
						JOINT RightArm
						{
							OFFSET -18.41580 0.00000 0.00000
							CHANNELS 3 Zrotation Xrotation Yrotation
							JOINT RightForeArm
							{
								OFFSET -29.11090 0.00000 0.00000
								CHANNELS 3 Zrotation Xrotation Yrotation
								JOINT RightHand
								{
									OFFSET -24.65040 0.00000 0.00000
									CHANNELS 3 Zrotation Xrotation Yrotation
									JOINT RightHandThumb1
									{
										OFFSET -5.35114 -0.85590 3.97906
										CHANNELS 3 Zrotation Xrotation Yrotation
										JOINT RightHandThumb2
										{
											OFFSET -4.52789 0.00000 0.00000
											CHANNELS 3 Zrotation Xrotation Yrotation
											JOINT RightHandThumb3
											{
												OFFSET -2.46976 0.00000 0.00000
												CHANNELS 3 Zrotation Xrotation Yrotation
												End site
												{
													OFFSET 0.00000 0.00000 0.00000
												}
											}
										}
									}
									JOINT RightHandIndex1
									{
										OFFSET -14.26970 0.00000 2.88139
										CHANNELS 3 Zrotation Xrotation Yrotation
										JOINT RightHandIndex2
										{
											OFFSET -5.48836 0.00000 0.00000
											CHANNELS 3 Zrotation Xrotation Yrotation
											JOINT RightHandIndex3
											{
												OFFSET -3.01859 0.00000 0.00000
												CHANNELS 3 Zrotation Xrotation Yrotation
												End site
												{
													OFFSET 0.00000 0.00000 0.00000
												}
											}
										}
									}
									JOINT RightHandMiddle1
									{
										OFFSET -14.26970 0.00000 -0.09147
										CHANNELS 3 Zrotation Xrotation Yrotation
										JOINT RightHandMiddle2
										{
											OFFSET -6.17441 0.00000 0.00000
											CHANNELS 3 Zrotation Xrotation Yrotation
											JOINT RightHandMiddle3
											{
												OFFSET -3.56743 0.00000 0.00000
												CHANNELS 3 Zrotation Xrotation Yrotation
												End site
												{
													OFFSET 0.00000 0.00000 0.00000
												}
											}
										}
									}
									JOINT RightHandRing1
									{
										OFFSET -12.69180 0.00000 -3.06433
										CHANNELS 3 Zrotation Xrotation Yrotation
										JOINT RightHandRing2
										{
											OFFSET -5.62556 0.00000 0.00000
											CHANNELS 3 Zrotation Xrotation Yrotation
											JOINT RightHandRing3
											{
												OFFSET -3.56744 0.00000 0.00000
												CHANNELS 3 Zrotation Xrotation Yrotation
												End site
												{
													OFFSET 0.00000 0.00000 0.00000
												}
											}
										}
									}
									JOINT RightHandPinky1
									{
										OFFSET -11.11390 0.00000 -6.03719
										CHANNELS 3 Zrotation Xrotation Yrotation
										JOINT RightHandPinky2
										{
											OFFSET -4.52789 0.00000 0.00000
											CHANNELS 3 Zrotation Xrotation Yrotation
											JOINT RightHandPinky3
											{
												OFFSET -2.46976 0.00000 0.00000
												CHANNELS 3 Zrotation Xrotation Yrotation
												End site
												{
													OFFSET 0.00000 0.00000 0.00000
												}
											}
										}
									}
								}
							}
						}
					}
					JOINT LeftShoulder
					{
						OFFSET 0.01000 7.91373 5.19711
						CHANNELS 3 Zrotation Xrotation Yrotation
						JOINT LeftArm
						{
							OFFSET 18.41580 0.00000 0.00000
							CHANNELS 3 Zrotation Xrotation Yrotation
							JOINT LeftForeArm
							{
								OFFSET 29.11090 0.00000 0.00000
								CHANNELS 3 Zrotation Xrotation Yrotation
								JOINT LeftHand
								{
									OFFSET 24.65040 0.00000 0.00000
									CHANNELS 3 Zrotation Xrotation Yrotation
									JOINT LeftHandThumb1
									{
										OFFSET 5.35114 -0.85590 3.97906
										CHANNELS 3 Zrotation Xrotation Yrotation
										JOINT LeftHandThumb2
										{
											OFFSET 4.52789 0.00000 0.00000
											CHANNELS 3 Zrotation Xrotation Yrotation
											JOINT LeftHandThumb3
											{
												OFFSET 2.46977 0.00000 0.00000
												CHANNELS 3 Zrotation Xrotation Yrotation
												End site
												{
													OFFSET 0.00000 0.00000 0.00000
												}
											}
										}
									}
									JOINT LeftHandIndex1
									{
										OFFSET 14.26970 0.00000 2.88139
										CHANNELS 3 Zrotation Xrotation Yrotation
										JOINT LeftHandIndex2
										{
											OFFSET 5.48836 0.00000 0.00000
											CHANNELS 3 Zrotation Xrotation Yrotation
											JOINT LeftHandIndex3
											{
												OFFSET 3.01859 0.00000 0.00000
												CHANNELS 3 Zrotation Xrotation Yrotation
												End site
												{
													OFFSET 0.00000 0.00000 0.00000
												}
											}
										}
									}
									JOINT LeftHandMiddle1
									{
										OFFSET 14.26970 0.00000 -0.09147
										CHANNELS 3 Zrotation Xrotation Yrotation
										JOINT LeftHandMiddle2
										{
											OFFSET 6.17440 0.00000 0.00000
											CHANNELS 3 Zrotation Xrotation Yrotation
											JOINT LeftHandMiddle3
											{
												OFFSET 3.56744 0.00000 0.00000
												CHANNELS 3 Zrotation Xrotation Yrotation
												End site
												{
													OFFSET 0.00000 0.00000 0.00000
												}
											}
										}
									}
									JOINT LeftHandRing1
									{
										OFFSET 12.69180 0.00000 -3.06433
										CHANNELS 3 Zrotation Xrotation Yrotation
										JOINT LeftHandRing2
										{
											OFFSET 5.62556 0.00000 0.00000
											CHANNELS 3 Zrotation Xrotation Yrotation
											JOINT LeftHandRing3
											{
												OFFSET 3.56744 0.00000 0.00000
												CHANNELS 3 Zrotation Xrotation Yrotation
												End site
												{
													OFFSET 0.00000 0.00000 0.00000
												}
											}
										}
									}
									JOINT LeftHandPinky1
									{
										OFFSET 11.11390 0.00000 -6.03719
										CHANNELS 3 Zrotation Xrotation Yrotation
										JOINT LeftHandPinky2
										{
											OFFSET 4.52789 0.00000 0.00000
											CHANNELS 3 Zrotation Xrotation Yrotation
											JOINT LeftHandPinky3
											{
												OFFSET 2.46976 0.00000 0.00000
												CHANNELS 3 Zrotation Xrotation Yrotation
												End site
												{
													OFFSET 0.00000 0.00000 0.00000
												}
											}
										}
									}
								}
							}
						}
					}
					JOINT pCube4
					{
						OFFSET 0.00000 10.91090 1.10792
						CHANNELS 3 Zrotation Xrotation Yrotation
						End site
						{
							OFFSET 0.00000 0.00000 0.00000
						}
					}
				}
			}
		}
	}
	JOINT RightUpLeg
	{
		OFFSET -9.98441 0.00000 0.00000
		CHANNELS 3 Zrotation Xrotation Yrotation
		JOINT RightLeg
		{
			OFFSET 0.00000 -42.11790 0.00000
			CHANNELS 3 Zrotation Xrotation Yrotation
			JOINT RightFoot
			{
				OFFSET 0.00000 -45.00020 -0.00001
				CHANNELS 3 Zrotation Xrotation Yrotation
				JOINT RightForeFoot
				{
					OFFSET 0.00000 -3.74820 0.00000
					CHANNELS 3 Zrotation Xrotation Yrotation
					JOINT RightToeBase
					{
						OFFSET 0.00000 0.06325 14.43120
						CHANNELS 3 Zrotation Xrotation Yrotation
						End site
						{
							OFFSET 0.00000 0.00000 0.00000
						}
					}
				}
			}
		}
	}
	JOINT LeftUpLeg
	{
		OFFSET 9.98441 0.00000 0.00000
		CHANNELS 3 Zrotation Xrotation Yrotation
		JOINT LeftLeg
		{
			OFFSET 0.00000 -42.11800 0.00000
			CHANNELS 3 Zrotation Xrotation Yrotation
			JOINT LeftFoot
			{
				OFFSET 0.00000 -45.00070 0.00000
				CHANNELS 3 Zrotation Xrotation Yrotation
				JOINT LeftForeFoot
				{
					OFFSET 0.00000 -3.74824 0.00000
					CHANNELS 3 Zrotation Xrotation Yrotation
					JOINT LeftToeBase
					{
						OFFSET 0.00000 0.06325 14.43110
						CHANNELS 3 Zrotation Xrotation Yrotation
						End site
						{
							OFFSET 0.00000 0.00000 0.00000
						}
					}
				}
			}
		}
	}
}
MOTION
Frames: 4
Frame Time: 0.050000
-0.0005138756470813468 0.0229410006435226 -0.02635518302483027 -0.03660929419990071 0.017677888280264325 -0.03761056495509802 3.501453416927626 3.413080374428446 -1.9157025086095008 -0.8769048508577654 3.5386607231622476 0.3964255267235224 -0.6427289326369007 -0.8515308058536816 -0.30157070758123955 -0.08453930306458578 -0.003874463743418443 -0.5516455162441998 -0.03718488783446249 11.84379480699876 -0.8589494775939518 0.36112024785869157 -0.43284716969852055 -1.615353667234341 0.7017725126258695 -16.37333551801282 -0.18200334250451597 -7.633762551229643 2.9768139318414475 -16.119911249407885 77.69406814148955 5.555315393084734 9.819745692314628 5.962065747079946 1.5049453740635554 96.83334758744131 3.448423141033108 0.08691735141761858 -0.058188834003936235 4.573400344297636 -0.16562072206070627 -1.553385467147665 -0.010693988574544495 0.011777833367863477 -56.20827463656621 0.005639741505090965 0.03895179175786787 -56.23719863965273 -38.76445469466787 -0.04545224358813246 0.0021285282397337166 0.02492551641857082 0.03508763941711996 0.009144214359110576 -0.0007587577151030385 0.011559125571681029 0.005979073921113853 -36.72560213485025 -0.032662146696528 0.04117102948769407 0.02909699553195012 0.04073327764854927 0.03787281607009496 0.023806198502770548 0.03461340432020803 -0.03630978366692413 -19.765519685443007 -0.0060298912313957245 -0.022957398391108275 -0.04726608039076817 -0.02018147963267097 -0.019586726549688013 -0.011701212861756537 0.002456096030945549 0.02576897761233728 24.080245152063487 -0.040357473199618576 0.0023690552310102787 28.849545848048514 0.004063818052510796 -0.03209191964440034 28.850785466691953 0.00012904047013661044 0.04810327017684584 8.71912015406907 2.190460229013417 12.9804660618569 -72.40992882947124 27.267204242106814 -18.198057777849613 -17.910551899698664 1.4870826070799965 -90.8411972029744 -10.446288788591175 -7.004834285607911 3.456889016673172 -0.43050822054570415 0.05920598484476823 -8.118062998497102 -0.04366536498053351 0.04149878069460942 44.599849276173856 0.022154333108474568 -0.005514789761288697 44.535668658921516 12.499427116582197 0.015142614317891935 -0.04060243589330493 0.02897218960616576 0.03083429001171829 -0.014049412361860796 0.03438155695354156 0.005484483324614856 0.04485998132179307 11.154995804870026 -0.04732919453208348 0.027945220073305813 0.010903281187013631 0.048486869505518386 0.040913806898352986 0.024261970624469182 0.04410529094307523 -0.03178437272948274 4.771246703967288 -0.00672600043632777 -0.04225404981608773 0.04437676335094664 -0.008738584166976133 0.01353423444003186 -0.016334653756998132 0.009252462923244777 0.0387446445663447 -5.622161021657896 -0.0028382380111822065 -0.023728263234480625 -6.732828284506153 -0.036966778347773704 0.006550374280278358 -6.725621737279106 -0.018394520128246293 0.009323307221305066 0.01996629230539586 0.024911149293733385 -0.03662726341698689 8.049885434685159 3.4893283697921404 -19.24115824801337 -0.014447427267439944 10.389840384159944 -0.024003619584016412 -5.627455236966795 -15.657065481602361 3.176395568098386 0.044788693898777904 -0.00841821178903476 -0.023666475242823143 -0.025681632375413287 4.7262571484889975 -0.014417675840416267 12.420557486280206 -8.228545592539808 6.8714426790652565 0.0026988863237916356 46.36810642126742 -0.01711538198737099 -4.293736499947596 -14.700514007784113 -3.8464074832555255 0.028136091841753193 0.030612134130276313 0.03854769362760387 0.028759791370023144 -10.769360440523961 0.016423291769841624 
-0.015831623325554576 0.0141511744127204 0.0002013977007128925 -0.009488125978500017 0.020700898780878288 -0.037793460410704985 3.260275808756187 3.575248395261646 -1.8699401970922938 -0.844840240119568 3.5248297859386324 0.40018610904913154 -0.6789277706785949 -0.8178938809416365 -0.27015692777247213 -0.0936439637685951 -0.04893185639488919 -0.48759560096522586 -0.13715625778526724 11.675975523146581 -0.748357925540015 0.32188556063187657 -0.48863167882192526 -1.4293312767571877 0.6010245812972898 -16.409287276312465 -0.10215732467480126 -7.239885922772859 2.8817456723887167 -16.00826540221474 77.27127277602841 5.5894660069142486 8.399311235237567 8.037103674653425 2.503364135792142 95.97471681386321 3.990503076194456 -0.015618461855410127 -0.4715633760806035 4.509249107314686 -0.16691630432423224 -1.6161138549953828 0.0010610772156529917 0.04647105710090926 -56.20462545786452 0.03697677798823994 -0.049184826637781745 -56.24959851273712 -38.761652310109675 -0.03211208419867467 -0.0061196261569229455 -0.001553155192294962 0.014797299651781096 -0.023845722801230134 0.006975279108715718 0.001127270053832156 0.02228678947933718 -36.72837988908735 -0.007188241925411285 0.0013279924120994965 -0.0364011868070448 -0.013974606378334604 -0.015227011705324641 -0.02776105255038985 0.04031864611276205 -0.03254014778173454 -19.798474772084383 -0.028813592385274773 -0.02188013701832461 -0.01107979067345017 -0.003545473579825633 0.009800006192716596 -0.015670826668026987 0.00859120409839288 0.0008093689709157882 24.061280309487675 0.00013861031615472813 -0.026748809383614895 28.827881500203627 -0.013517616793898337 -0.03392114055482085 28.910307686244053 -0.0396642430212792 -0.008683795413741546 8.389791140871019 2.188198720200618 12.907853879205076 -72.1722162477853 27.132330916842218 -17.336573089353585 -22.465921168440104 3.4276232227171466 -90.69746479434056 -11.94620245823109 -8.067430541244258 4.3357829140995205 -0.5007657347135864 0.08331492431867679 -8.085137455523574 -0.035447487880009135 0.03258257654120968 44.584295990997845 0.005371740847498721 -0.003696431628035539 44.5672734993318 12.419941717345939 -0.02141015457598501 0.031164386556605507 -0.01680705484867074 0.0073243401791662855 0.01635381976654514 0.03501306258900612 -0.029932452443449876 0.03496570144932897 11.140293313065387 0.02793070247826148 -0.024383793428709104 -0.038258502836487115 0.03009545894441405 0.010111148547410121 -0.03281735421691868 -0.00024335343754993595 -0.011457275103066687 4.8139761006212085 -0.042104201666570605 0.03334962612506446 -0.024108799651349166 -0.04553290120407456 -0.01660368861685535 -0.026889373024710755 0.045641307274343575 -0.04161609779464574 -5.562965359776381 0.02162454721583904 0.01715283708027866 -6.736089838108133 0.026251780244324167 0.029624164470247953 -6.730623001508139 0.01654759095196042 0.015534353340267142 -0.009722481764244692 -0.012661116449563964 0.02351118492758399 8.042611229237993 3.5305282563686387 -19.259998373993078 -0.018649697236023607 10.440776944645595 -0.01336463116273547 -5.572940741186228 -15.6840699389394 3.17515012030358 0.04350429917943339 0.01389584270127887 0.04528559536089877 -0.0008769985356723212 4.682788377628092 0.0075991612816872075 12.467589388927948 -8.249568365516959 6.859119788011445 -0.04492042442205984 46.39041603745812 -0.044596724164369356 -4.320134710043857 -14.71595674516817 -3.8088059739945357 -0.049924611236005764 -0.005684400059787728 0.04765074354202429 0.0007385365341955611 -10.732537930169046 0.0075332470534979585 
0.0034856126204908413 -0.02010479934422486 0.025291200831263974 -0.03902608456690121 -0.02948647739382451 -0.017056660055121717 3.011347010796389 3.729220103238425 -1.8852121422229857 -0.8332768736463976 3.473811364167361 0.380564850565852 -0.7261504620090489 -0.7278681910454319 -0.35201561332773973 -0.17647417648075692 -0.02695158477729506 -0.5071937288571637 -0.16816157374167423 11.482767146471957 -0.6588254830489534 0.24671874152851217 -0.525543886741356 -1.3822810571621877 0.5471671384216874 -16.48547969469727 -0.16453608418375382 -6.810007190183571 2.8197291109770917 -15.96177598734194 77.25988652791811 5.563992321364429 6.525934609744265 10.321786417614003 3.6380825991250316 93.30711829940218 4.944657864973478 -0.08491529077367443 -0.9777774549812096 4.507160543854738 -0.1240621032506804 -1.5868279829999146 -0.035079196910084376 0.010599440594597912 -56.2218913373202 0.0006030292596189609 0.01299563892975287 -56.278726612125105 -38.75249948862109 0.03967464811727716 0.027466982146395504 0.0008053722946938294 0.004875027606053012 0.03266572944852244 0.02986186054050812 0.024323119522865005 -0.0170030290901037 -36.691687352810185 -0.01428642018022845 0.0072298347569865395 -0.01410364883417461 0.005259440039082054 0.04568387925244772 0.0396668933028672 0.005510940444963336 -0.04879950348354235 -19.799614267510172 0.01408023625799606 0.023440545103594432 -0.004119082652392429 0.028426771735870958 -0.03864991273412184 0.0054500676684155055 -0.0028641476369186906 -0.021382541462728052 24.050265348761833 -0.038051386945005795 0.045220986675784 28.844532831719835 -0.031844497642197114 0.036652401144423134 28.82418825854989 0.04069670347218683 0.026274376673574334 8.12438884357256 2.143291004359286 13.018330545232347 -72.24761715539597 26.54460254993121 -15.955774903165578 -27.062342712008732 5.234087230956906 -89.43947482967533 -13.013603549864104 -8.392918097042994 4.836569087239527 -0.48576746435170237 0.0955593728498202 -8.083225439955848 -0.016947868891764487 -0.034990453064865985 44.58325802724069 -0.03815740284850291 -0.02205305674725911 44.61160749243433 12.42316939263613 0.01900391228747658 -0.01842221976096849 -0.04196564357607517 -0.014539682845016867 0.026211922681917726 0.0096407368026927 0.04429843018370474 0.0028838061257520724 11.081281818170988 0.0021653525250949113 -0.003186832784573388 0.012229173505398346 -0.009901057350139627 0.001807901416254665 -0.006871858486734873 0.03603677223830623 -0.008527469495705618 4.728127304709926 -0.002871351201570319 -0.0011726845630750213 0.025199862022462244 0.02445008530947443 -0.023909661491939425 0.005169689979822621 0.03368018881385598 0.026306750923182645 -5.639011344911669 -0.0168548723747096 0.018568585638500335 -6.67319866396342 0.012894131159826523 0.03190926670391577 -6.684877558728388 -0.0024830206424922762 -0.029299786430619548 0.013123716282583712 -0.01720434864957595 0.0068072901737203035 8.078908792329717 3.489477025666981 -19.222034571406187 0.009042373689991418 10.357379496992165 0.004906001991832975 -5.640902278283221 -15.658303115752938 3.220381737039592 0.017535495606869567 -0.01793843974832158 -0.013899132994989797 0.03132804078771093 4.745440639206411 -0.0015224619261219022 12.447474873808524 -8.190629393818762 6.915175633443638 -0.0004411579454296741 46.41723383702941 -0.03723832111927711 -4.3241256893753 -14.78552314633677 -3.7910841373079114 -0.03732464774609019 0.019599717887075898 0.032918987488859915 0.01341044466055615 -10.732733856772317 0.038461604280163625 
0.005788061406107213 -0.04765329286223488 -0.027130893103081807 -0.0012151791645560394 0.005748122721852361 0.017072074586479614 2.943962281431753 3.8905438479740186 -1.8070764072046326 -0.8124044962801895 3.473207787974554 0.39271835344331324 -0.680224153456141 -0.7454805109361835 -0.29036133314106094 -0.2256230173137569 -0.00046895044901882135 -0.5438782512385167 -0.20888865460158793 11.286146056910795 -0.6158205822073602 0.23985397346997087 -0.6162541128668682 -1.335578900295165 0.5604647461531755 -16.563420694544362 -0.12169593351667096 -6.511520727469321 2.700995129741931 -15.931380577166182 77.38692459151748 5.6552091258787325 4.976795867799127 12.216970199749431 4.795942953913899 89.83021277102277 6.305588518302577 -0.12872819901901328 -1.5630374962854021 4.515187484975213 -0.16562838729341794 -1.598346809924933 0.0374942845887952 0.03774846862046507 -56.26296068362184 0.023180503200939683 -0.0034072436059177035 -56.200056386893515 -38.737450187270014 -0.02892146228845217 0.01842407339939917 -0.010172373611879065 0.04388215858492735 -0.045028045138363296 -0.016940454225235196 -0.00012179244215134775 -0.011925093700161845 -36.695089720474655 0.02716912557985017 -0.022672698026072576 0.04755187107468514 0.009373607324972838 -0.00022231746213302375 -0.042295264064559634 -0.045695060798102274 -0.0030885968829172665 -19.71559612731651 -0.039357289422438796 0.03347713388330285 -0.03478512150043517 -0.04529073752488586 0.004726836625912161 0.0001612979713511635 -0.036969662983595164 0.021225299638983577 24.033313461971403 0.03162785584434332 -0.0014353413425426378 28.84685536319854 -0.042618810693276325 -0.04823013030926044 28.852163740383144 0.0462914210888466 0.0034170632773548094 7.8367892194436335 2.0536065988262466 12.98285867035687 -72.29475791987763 26.054589113427774 -14.841435999214763 -30.413116498679987 6.359397746690398 -87.71450775674323 -14.059792817330822 -8.286410347755655 5.088267387696723 -0.475250433972499 0.06146849112041191 -8.082592295541351 -0.03366004175914154 -0.004767513832179724 44.60210024764699 0.024334350630014007 -0.018721227597375784 44.553973158983574 12.493242426945105 -0.003959708230572319 0.03571586854591661 -0.03493966772694864 0.0288234340476629 0.03296447158975273 0.03143901372592755 0.04018266603973835 -0.01854590571307434 11.085213415290417 -0.027801612240098365 -0.04748510269749424 -0.026517460801461227 -0.045131725416817134 -0.03162051278658582 -0.047463665895117066 0.03683193043906004 0.041446597330008904 4.776255454483146 0.021543502001674066 -0.009759660892152364 0.020333078768527118 0.024963631745166477 0.04197367667758314 -0.023784329661047113 0.04491617746142551 -0.002463605069256279 -5.6125138375897805 0.03683974858844089 0.027415364557955287 -6.730063396200811 -0.01806296590198269 0.03096242544570744 -6.730140686734201 -0.04850660120745211 0.02578492354828249 -0.008121183476291512 -0.013495125204323171 0.005295366648080677 8.038630624751478 3.4868564855801556 -19.172954444581354 0.030395696763771372 10.419407386273178 0.02050174046706254 -5.6546349985098 -15.622064719390975 3.2091764226180435 0.0024725839689551123 0.04480185800637931 -0.03304560189223482 0.016061043140582567 4.687687966985355 -0.021431598646792272 12.467976996477315 -8.222988070982886 6.910570840252542 -0.011973299472471161 46.384924409987335 0.03403229418943041 -4.32240654318018 -14.73740854039092 -3.8083069711551003 -0.0018019808726600513 0.04915766415934753 -0.0048289356829713265 0.016663471821821516 -10.772461479777391 0.01823076687121576 
